<?xml version="1.0" encoding="UTF-8"?>
<svg width="69px" height="68px" viewBox="0 0 69 68" version="1.1" xmlns="http://www.w3.org/2000/svg" xmlns:xlink="http://www.w3.org/1999/xlink">
    <!-- Generator: Sketch 53.2 (72643) - https://sketchapp.com -->
    <title>air</title>
    <desc>Created with Sketch.</desc>
    <g id="boostrap" stroke="none" stroke-width="1" fill="none" fill-rule="evenodd">
        <g id="Home---1366x650---1140-container" transform="translate(-551.000000, -1235.000000)" fill="#FFFFFF">
            <g id="services" transform="translate(113.000000, 948.000000)">
                <g transform="translate(0.000000, 241.000000)" id="item3">
                    <g transform="translate(384.000000, 0.000000)">
                        <path d="M100.866861,74.6572848 C102.72958,74.0125016 104.681417,74.3174705 106.771169,74.7695963 C108.151188,75.0688056 109.577958,75.380398 111.178289,75.380398 C113.320635,75.380398 115.325943,74.8012739 117.310798,73.6133639 C120.368579,71.7806707 122.4595,68.5029031 122.906844,64.8444283 C123.415841,60.664425 121.827198,56.5178271 118.430475,53.1712327 C115.060049,49.8494044 110.560597,48.0216068 105.761064,48.0216068 C100.862478,48.0216068 96.2432275,49.9147754 92.7541722,53.3523709 C88.3929262,57.6507333 85.5566261,64.5037501 85.5075379,70.7885859 C84.469967,70.0450262 83.5513178,69.1327114 83.0788446,67.8108915 C82.3483666,65.7659584 82.7396106,64.016491 83.1927992,61.9917164 C83.8137055,59.2176226 84.5865512,55.7653401 82.0196514,51.6043434 C79.8863634,48.1474533 75.8926939,46 71.5954378,46 C67.8881157,46 64.2254988,47.5985669 61.279627,50.500811 C54.2509674,57.4289901 54.3354107,68.781666 61.4645841,75.8068937 C65.7685606,80.0488123 72.8404645,82.9061318 79.1363086,82.9758225 C78.3830396,83.9883538 77.4632217,84.8805102 76.1322907,85.3427152 C74.273078,85.9895142 72.3212407,85.6859852 70.2279829,85.2304037 C68.8491326,84.9309064 67.4214863,84.619314 65.8199863,84.619314 C63.6788091,84.619314 61.6735008,85.1975742 59.6898146,86.3854842 C56.6320336,88.2190413 54.5399445,91.4970969 54.0934764,95.1552838 C53.5833105,99.3344231 55.1734151,103.481885 58.5689692,106.827615 C61.9393948,110.149444 66.4385551,111.977241 71.2392567,111.977241 C76.1369658,111.977241 80.7559245,110.084073 84.2452719,106.646477 C88.6065179,102.348115 91.442818,95.495098 91.4927827,89.2102622 C92.529185,89.9549738 93.4481263,90.8661367 93.9217683,92.1891085 C94.6510775,94.2340416 94.2595413,95.9820691 93.8063528,98.0082836 C93.1854464,100.781226 92.4140616,104.23466 94.9797927,108.395657 C97.1130807,111.851395 101.107919,114 105.405175,114 C109.111036,114 112.774822,112.401433 115.720694,109.499189 C122.747016,102.571874 122.66491,91.219198 115.536029,84.1931063 C111.23176,79.9500358 104.159856,77.0938682 97.8640121,77.0238895 C98.6161123,76.0104943 99.5373912,75.1194898 100.866861,74.6572848 Z M90.8298899,81.8614142 C89.3194544,83.3795286 86.6819498,83.3795286 85.1701101,81.8614142 C83.6099633,80.2933731 83.6099633,77.7448478 85.1701101,76.1768066 C85.9261704,75.4177494 86.9310678,75 88.0005617,75 C89.0703365,75 90.0741105,75.4177494 90.8298899,76.1768066 C92.3900367,77.7448478 92.3900367,80.2933731 90.8298899,81.8614142 Z" id="air"></path>
                    </g>
                </g>
            </g>
        </g>
    </g>
</svg>