<?xml version="1.0" encoding="UTF-8"?>
<svg width="60px" height="72px" viewBox="0 0 60 72" version="1.1" xmlns="http://www.w3.org/2000/svg" xmlns:xlink="http://www.w3.org/1999/xlink">
    <!-- Generator: Sketch 53.2 (72643) - https://sketchapp.com -->
    <title>clipboard</title>
    <desc>Created with Sketch.</desc>
    <g id="boostrap" stroke="none" stroke-width="1" fill="none" fill-rule="evenodd">
        <g id="Home---1366x650---1140-container" transform="translate(-1136.000000, -1228.000000)" fill="#FFFFFF">
            <g id="services" transform="translate(113.000000, 948.000000)">
                <g transform="translate(0.000000, 241.000000)" id="item6">
                    <g transform="translate(960.000000, 0.000000)">
                        <g id="clipboard" transform="translate(63.000000, 39.000000)">
                            <polygon id="Fill-1" points="11.7857143 35.5068493 48.2142857 35.5068493 48.2142857 29.5890411 11.7857143 29.5890411"></polygon>
                            <polygon id="Fill-2" points="11.7857143 47.3424658 48.2142857 47.3424658 48.2142857 41.4246575 11.7857143 41.4246575"></polygon>
                            <polygon id="Fill-3" points="12.000375 58.1538462 48.000375 58.1538462 48.000375 52.6153846 12.000375 52.6153846"></polygon>
                            <path d="M53.999625,66.4615385 L5.9998125,66.4615385 L5.9998125,16.6155577 L11.9998125,16.6155577 L11.9998125,22.1540192 L47.9998125,22.1540192 L47.9998125,16.6155577 L53.999625,16.6155577 L53.999625,66.4615385 Z M30.038625,5.53863462 C31.695375,5.53863462 33.038625,6.77838462 33.038625,8.30786538 C33.038625,9.83717308 31.695375,11.0770962 30.038625,11.0770962 C28.3816875,11.0770962 27.038625,9.83717308 27.038625,8.30786538 C27.038625,6.77838462 28.3815,5.53863462 30.038625,5.53863462 Z M53.999625,11.0770962 L45.6703125,11.0770962 C44.5591875,9.93773077 43.1319375,9.06594231 41.4920625,8.63048077 C40.1105625,8.26390385 39.0474375,7.28255769 38.6503125,6.00732692 C37.569375,2.53817308 34.105875,0.000173076923 29.9998125,0.000173076923 C25.894125,0.000173076923 22.4304375,2.53817308 21.3493125,6.00715385 C20.951625,7.28376923 19.885875,8.26390385 18.502875,8.63169231 C16.8646875,9.0675 15.4389375,9.93842308 14.32875,11.0770962 L5.9998125,11.0770962 C2.686125,11.0770962 0,13.5567692 0,16.6155577 L0,66.4615385 C0,69.5203269 2.686125,72 5.9998125,72 L53.999625,72 C57.3135,72 59.999625,69.5203269 59.999625,66.4615385 L59.999625,16.6155577 C59.999625,13.5567692 57.3135,11.0770962 53.999625,11.0770962 L53.999625,11.0770962 Z" id="clipboards"></path>
                        </g>
                    </g>
                </g>
            </g>
        </g>
    </g>
</svg>