<?xml version="1.0" encoding="UTF-8"?>
<svg width="61px" height="68px" viewBox="0 0 61 68" version="1.1" xmlns="http://www.w3.org/2000/svg" xmlns:xlink="http://www.w3.org/1999/xlink">
    <!-- Generator: Sketch 53.2 (72643) - https://sketchapp.com -->
    <title>fire</title>
    <desc>Created with Sketch.</desc>
    <g id="boostrap" stroke="none" stroke-width="1" fill="none" fill-rule="evenodd">
        <g id="Home---1366x650---1140-container" transform="translate(-366.000000, -1233.000000)" fill="#FFFFFF">
            <g id="services" transform="translate(113.000000, 948.000000)">
                <g transform="translate(0.000000, 241.000000)" id="item2">
                    <g transform="translate(192.000000, 0.000000)">
                        <path d="M107.284587,85.2302448 C103.173116,86.6022815 99.0173488,85.8454892 96.9424855,83.3464176 C93.5454547,79.2544424 95.8797179,76.4065236 98.1369665,73.6522744 C100.696401,70.5292177 103.597619,66.9893447 100.815027,60.1055481 C98.6183496,54.6710198 94.3162716,50.1084792 88.02809,46.5446017 C86.0678257,45.4337438 84.2087374,44.5982847 82.69999,44 C84.8072363,47.7887887 87.5475459,54.8391814 84.6850869,62.6286241 C82.8696234,67.5694957 78.0715648,71.3136674 73.4313945,74.9345554 C67.3198935,79.7038734 61,84.6354825 61,92.5150723 C61,98.6277261 63.8832647,103.497367 69.5694239,106.988448 C73.8753609,109.632069 77.4596254,110.66152 77.503418,110.669608 C79.906901,111.222019 82.1351725,111.498224 84.1882324,111.498224 C86.2412923,111.498224 87.7588501,111.252244 88.7409058,110.760283 C85.9425061,109.129716 84.5203752,107.424138 84.4745132,105.643547 C84.4424658,104.395186 85.3293918,103.197703 87.1106266,102.084366 C89.7861701,100.412013 91.2566619,98.6114187 91.6064994,96.5797816 C91.8204288,95.3372906 91.6041504,94.0236995 90.946758,92.6058717 C95.3844084,93.9805176 99.9747458,96.982117 101.530306,100.708155 C102.927307,104.054296 101.635006,107.495542 97.7966929,110.669608 C98.8029426,111.736668 100.900334,112.16184 104.088867,111.945124 C106.429308,111.78605 108.678576,111.052629 110.83667,109.744861 C118.352722,105.39549 121.01835,101.108012 121.847725,95.1777393 C122.905123,87.6165998 118.225355,80.4951069 114.925977,76.5312424 C114.520602,80.8816568 111.162162,83.9358311 107.284587,85.2302448 Z" id="fire"></path>
                    </g>
                </g>
            </g>
        </g>
    </g>
</svg>