<?xml version="1.0" encoding="UTF-8"?>
<svg width="77px" height="69px" viewBox="0 0 77 69" version="1.1" xmlns="http://www.w3.org/2000/svg" xmlns:xlink="http://www.w3.org/1999/xlink">
    <!-- Generator: Sketch 53.2 (72643) - https://sketchapp.com -->
    <title>home-interface</title>
    <desc>Created with Sketch.</desc>
    <g id="boostrap" stroke="none" stroke-width="1" fill="none" fill-rule="evenodd">
        <g id="Home---1366x650---1140-container" transform="translate(-933.000000, -1232.000000)" fill="#FFFFFF">
            <g id="services" transform="translate(113.000000, 948.000000)">
                <g transform="translate(0.000000, 241.000000)" id="item5">
                    <g transform="translate(768.000000, 0.000000)">
                        <path d="M94.0550172,61.5406578 L118.229238,80.7504433 C119.365427,81.6401104 120,82.9629049 120,84.3617894 L120,107.317542 C120,109.898747 117.830364,112 115.159112,112 L100.666667,112 L100.666667,88.5877081 L81.3333333,88.5877081 L81.3333333,112 L66.81067,112 C64.1454621,112 62,109.898747 62,107.317542 L62,84.3617894 C62,82.9629049 62.6345733,81.6401104 63.7707617,80.7504433 L87.9449828,61.5406578 C88.8152548,60.832436 89.9030947,60.4929577 90.9848911,60.4929577 C92.0969053,60.4929577 93.1847452,60.832436 94.0550172,61.5406578 Z M128.179286,73.8860491 C129.16586,74.7491789 129.286173,76.2071683 128.413898,77.1869373 C127.920611,77.7118135 127.264901,77.9859155 126.579112,77.9859155 C126.019653,77.9859155 125.47824,77.8051248 125.009016,77.4143836 L90.4849608,48.4120569 L55.9909836,77.4143836 C54.9803473,78.2600175 53.4523616,78.1433784 52.586102,77.1869373 C51.7138267,76.2071683 51.8341405,74.725851 52.820714,73.8860491 L66.4221933,62.4495796 L66.4221933,49.9866856 C66.4221933,47.4147921 68.5878424,45.3152873 71.2407625,45.3152873 C73.8996983,45.3152873 76.0593317,47.4147921 76.0593317,49.9866856 L76.0593317,54.360654 L88.938928,43.559868 C89.8292504,42.8133773 91.1707496,42.8133773 92.0851348,43.559868 L128.179286,73.8860491 Z" id="home-interface"></path>
                    </g>
                </g>
            </g>
        </g>
    </g>
</svg>