<?xml version="1.0" encoding="UTF-8"?>
<svg width="396px" height="131px" viewBox="0 0 396 131" version="1.1" xmlns="http://www.w3.org/2000/svg" xmlns:xlink="http://www.w3.org/1999/xlink">
    <!-- Generator: Sketch 53.2 (72643) - https://sketchapp.com -->
    <title>logo</title>
    <desc>Created with Sketch.</desc>
    <defs>
        <filter x="-2.5%" y="-13.2%" width="104.9%" height="128.9%" filterUnits="objectBoundingBox" id="filter-1">
            <feOffset dx="0" dy="2" in="SourceAlpha" result="shadowOffsetOuter1"></feOffset>
            <feGaussianBlur stdDeviation="7.5" in="shadowOffsetOuter1" result="shadowBlurOuter1"></feGaussianBlur>
            <feColorMatrix values="0 0 0 0 0.117647059   0 0 0 0 0.117647059   0 0 0 0 0.117647059  0 0 0 0.5 0" type="matrix" in="shadowBlurOuter1" result="shadowMatrixOuter1"></feColorMatrix>
            <feMerge>
                <feMergeNode in="shadowMatrixOuter1"></feMergeNode>
                <feMergeNode in="SourceGraphic"></feMergeNode>
            </feMerge>
        </filter>
    </defs>
    <g id="boostrap" stroke="none" stroke-width="1" fill="none" fill-rule="evenodd">
        <g id="Home---1366x650---1140-container" transform="translate(-98.000000, -38.000000)" fill-rule="nonzero">
            <g id="header" filter="url(#filter-1)">
                <g id="logo" transform="translate(113.000000, 51.000000)">
                    <path d="M148.021237,73.0153027 L128.687294,73.0153027 L128.687294,43.671324 L106.333944,43.671324 L106.333944,73.0153027 L87,73.0153027 L87,1.03393214 L106.333944,1.03393214 L106.333944,27.7192283 L128.687294,27.7192283 L128.687294,1.03393214 L148.021237,1.03393214 L148.021237,73.0153027 Z M203.393263,1.03393214 L224.918711,1.03393214 L201.591358,73.0153027 L178.945808,73.0153027 L155.715855,1.03393214 L177.338704,1.03393214 L187.030025,37.516966 C189.042974,45.6243475 190.146832,51.2698888 190.341633,54.4537592 C190.568901,52.1561206 191.023431,49.2841156 191.705236,45.8376579 C192.387041,42.3912004 192.98767,39.68331 193.50714,37.7139055 L203.393263,1.03393214 Z M272.303918,73.0153027 L268.79751,59.5249501 L245.664957,59.5249501 L242.061149,73.0153027 L220.925303,73.0153027 L244.155254,0.73852296 L269.820213,0.73852296 L293.342365,73.0153027 L272.303918,73.0153027 Z M264.804101,43.5728542 L261.735994,31.756487 C261.021722,29.1306145 260.153245,25.7334429 259.130539,21.5648702 C258.107831,17.3962976 257.434152,14.4094124 257.109483,12.6041251 C256.817282,14.2781188 256.241002,17.0352436 255.380629,20.8755821 C254.520257,24.7159207 252.612855,32.2816024 249.658367,43.5728542 L264.804101,43.5728542 Z M330.74405,15.9520957 C326.166216,15.9520957 322.594911,17.8476192 320.030025,21.6387226 C317.46514,25.429826 316.182717,30.6568751 316.182717,37.3200266 C316.182717,51.1715041 321.393577,58.097139 331.815452,58.097139 C334.964742,58.097139 338.016585,57.6540296 340.971073,56.7677978 C343.925561,55.8815658 346.896238,54.814821 349.883193,53.5675316 L349.883193,70.011976 C343.94175,72.6706719 337.221202,74 329.721347,74 C318.974803,74 310.73645,70.8490002 305.006042,64.5469062 C299.275633,58.2448121 296.410472,49.1364534 296.410472,37.2215568 C296.410472,29.7706435 297.798412,23.2224722 300.574331,17.5768462 C303.350251,11.9312204 307.343621,7.59038998 312.554559,4.55422488 C317.765496,1.51805978 323.893532,0 330.93885,0 C338.633506,0 345.987149,1.69038007 353,5.07119094 L347.107287,20.3832335 C344.477468,19.1359441 341.847687,18.0856108 339.217868,17.2322023 C336.588049,16.3787937 333.763471,15.9520957 330.74405,15.9520957 Z" id="HVAC" fill="#2F338F"></path>
                    <path d="M35.938386,0 C27.2832978,0 20.2669962,7.016328 20.2669962,15.671436 C20.2669962,23.23728 25.6286712,29.549916 32.7595092,31.019208 C29.2738842,28.925358 26.9833014,25.389408 26.9833014,21.379842 C26.9833014,14.95032 32.8720062,9.737772 40.1360784,9.737772 C45.0622854,9.737772 49.3562784,12.135222 51.6097758,15.683448 L51.6097758,15.671436 C51.6097758,7.016328 44.5934742,0 35.938386,0 Z M15.6713898,14.390244 C7.0163082,14.390244 0,21.406506 0,30.061614 C0,38.716722 7.0163082,45.732984 15.6713898,45.732984 C23.237247,45.732984 29.549916,40.371342 31.0192146,33.240504 C28.9253712,36.726096 25.3893354,39.016692 21.3798024,39.016692 C14.9503332,39.016692 9.7377786,33.127974 9.7377786,25.863948 C9.7377786,20.937708 12.135222,16.643748 15.6834282,14.390244 L15.6713868,14.390244 L15.6713898,14.390244 Z M50.3286102,20.267016 C42.762753,20.267016 36.450084,25.628658 34.9807854,32.759496 C37.0746288,29.273904 40.6106646,26.983308 44.6201976,26.983308 C51.0496668,26.983308 56.2622214,32.872026 56.2622214,40.136118 C56.2622214,45.062292 53.864778,49.356318 50.3165718,51.609756 L50.3286132,51.609756 C58.9836918,51.609756 66,44.593494 66,35.938386 C66,27.283278 58.9836918,20.267016 50.3286102,20.267016 Z M33.2404908,34.980792 C36.7261158,37.074642 39.0166986,40.610658 39.0166986,44.620224 C39.0166986,51.04968 33.1279938,56.262228 25.8639216,56.262228 C20.9377146,56.262228 16.6437216,53.864778 14.3902242,50.316552 L14.3902242,50.32863 C14.3902242,58.983672 21.4065258,66 30.061614,66 C38.7167022,66 45.7330038,58.983672 45.7330038,50.32863 C45.7330038,42.762786 40.3713288,36.450084 33.2404908,34.980792 Z" id="Shape" fill="#2F338F"></path>
                    <path d="M6.04913069,100.86711 L3.83522615,100.86711 L3.83522615,92.8671096 L1,92.8671096 L1,91.1528239 L8.88435683,91.1528239 L8.88435683,92.8671096 L6.04913069,92.8671096 L6.04913069,100.86711 Z M23.5391801,100.86711 L21.3324172,100.86711 L21.3324172,96.6744185 L17.1974149,96.6744185 L17.1974149,100.86711 L14.9835103,100.86711 L14.9835103,91.1528239 L17.1974149,91.1528239 L17.1974149,94.9601329 L21.3324172,94.9601329 L21.3324172,91.1528239 L23.5391801,91.1528239 L23.5391801,100.86711 Z M36.6799783,100.86711 L30.666728,100.86711 L30.666728,91.1528239 L36.6799783,91.1528239 L36.6799783,92.8405316 L32.8806324,92.8405316 L32.8806324,94.9734218 L36.4157381,94.9734218 L36.4157381,96.6611296 L32.8806324,96.6611296 L32.8806324,99.1661129 L36.6799783,99.1661129 L36.6799783,100.86711 Z M51.6420951,91.1528239 L54.8915357,91.1528239 C56.3722405,91.1528239 57.4470446,91.3488352 58.1159805,91.7408637 C58.7849163,92.1328924 59.1193792,92.7563633 59.1193792,93.6112956 C59.1193792,94.1915865 58.9729773,94.6677722 58.680169,95.0398671 C58.3873609,95.4119619 57.9981461,95.6356584 57.512513,95.7109634 L57.512513,95.7774086 C58.174307,95.9147293 58.651601,96.1716482 58.9444093,96.5481728 C59.2372174,96.9246974 59.3836194,97.425246 59.3836194,98.0498338 C59.3836194,98.9357741 59.0396345,99.626797 58.3516542,100.122924 C57.663674,100.61905 56.7293204,100.86711 55.5485654,100.86711 L51.6420951,100.86711 L51.6420951,91.1528239 Z M53.8559997,95 L55.1414927,95 C55.7413923,95 56.175837,94.9136221 56.4448397,94.7408638 C56.7138423,94.5681054 56.8483416,94.282394 56.8483416,93.8837209 C56.8483416,93.511626 56.7019396,93.2447405 56.4091315,93.0830565 C56.1163234,92.9213724 55.6533124,92.8405316 55.020085,92.8405316 L53.8559997,92.8405316 L53.8559997,95 Z M53.8559997,96.6345515 L53.8559997,99.1661129 L55.2986084,99.1661129 C55.9080304,99.1661129 56.3579484,99.0575869 56.648376,98.8405315 C56.9388036,98.6234762 57.0840153,98.2912536 57.0840153,97.8438537 C57.0840153,97.0376482 56.4650804,96.6345515 55.2271921,96.6345515 L53.8559997,96.6345515 Z M71.9745123,100.86711 L65.9612619,100.86711 L65.9612619,91.1528239 L71.9745123,91.1528239 L71.9745123,92.8405316 L68.1751664,92.8405316 L68.1751664,94.9734218 L71.710272,94.9734218 L71.710272,96.6611296 L68.1751664,96.6611296 L68.1751664,99.1661129 L71.9745123,99.1661129 L71.9745123,100.86711 Z M84.8082205,98.1694351 C84.8082205,99.046516 84.4689966,99.7375389 83.7905386,100.242525 C83.1120806,100.747511 82.168205,101 80.9588833,101 C79.8447838,101 78.8592491,100.805096 78.0022495,100.415282 L78.0022495,98.5016611 C78.7068936,98.7940213 79.3032135,98.9999994 79.7912272,99.1196012 C80.2792408,99.2392032 80.725588,99.2990033 81.1302823,99.2990033 C81.6159155,99.2990033 81.9884666,99.2126255 82.247947,99.0398671 C82.5074274,98.8671088 82.6371657,98.61019 82.6371657,98.2691029 C82.6371657,98.0786258 82.5800333,97.9091923 82.4657667,97.7607973 C82.3515001,97.6124023 82.1836735,97.4695466 81.962282,97.3322259 C81.7408903,97.1949052 81.289782,96.9756382 80.6089435,96.6744185 C79.9709549,96.3953474 79.4924706,96.1273545 79.1734764,95.8704319 C78.8544821,95.6135092 78.5997666,95.3145089 78.4093222,94.9734218 C78.2188778,94.6323349 78.1236572,94.2336678 78.1236572,93.7774087 C78.1236572,92.9180466 78.4366954,92.2425274 79.0627811,91.7508306 C79.6888669,91.2591338 80.5541856,91.0132891 81.6587628,91.0132891 C82.2015292,91.0132891 82.7192921,91.073089 83.2120668,91.192691 C83.7048415,91.312293 84.2202239,91.480619 84.7582292,91.6976744 L84.0440664,93.2990033 C83.4870166,93.0863777 83.0263863,92.9379849 82.6621615,92.8538205 C82.2979366,92.7696562 81.9396685,92.7275748 81.5873464,92.7275748 C81.1683689,92.7275748 80.8469989,92.8183823 80.6232268,93 C80.3994547,93.1816177 80.2875703,93.4186031 80.2875703,93.7109634 C80.2875703,93.8925812 80.3328002,94.0509405 80.4232612,94.1860464 C80.5137223,94.3211523 80.6577436,94.4518266 80.8553296,94.5780731 C81.0529156,94.7043196 81.5206877,94.9313383 82.2586595,95.2591362 C83.2346868,95.6932469 83.9036125,96.1284585 84.2654568,96.564784 C84.6273011,97.0011096 84.8082205,97.5359879 84.8082205,98.1694351 Z M95.220917,100.86711 L93.0070125,100.86711 L93.0070125,92.8671096 L90.1717863,92.8671096 L90.1717863,91.1528239 L98.0561432,91.1528239 L98.0561432,92.8671096 L95.220917,92.8671096 L95.220917,100.86711 Z M121.0026,100.86711 L118.795837,100.86711 L118.795837,96.6744185 L114.660834,96.6744185 L114.660834,100.86711 L112.44693,100.86711 L112.44693,91.1528239 L114.660834,91.1528239 L114.660834,94.9601329 L118.795837,94.9601329 L118.795837,91.1528239 L121.0026,91.1528239 L121.0026,100.86711 Z M134.086264,91.1528239 L136.321595,91.1528239 L132.772205,100.86711 L130.358335,100.86711 L126.816088,91.1528239 L129.051417,91.1528239 L131.015365,96.9335548 C131.12487,97.2746417 131.237945,97.6722015 131.354592,98.1262458 C131.471239,98.5802902 131.543845,98.8959016 131.572412,99.0730897 C131.624784,98.6655572 131.803323,97.952386 132.108034,96.9335548 L134.086264,91.1528239 Z M147.934084,100.86711 L147.177071,98.5548173 L143.370584,98.5548173 L142.613571,100.86711 L140.228268,100.86711 L143.913347,91.1129568 L146.620025,91.1129568 L150.319388,100.86711 L147.934084,100.86711 Z M146.648591,96.8272425 C145.948709,94.7319939 145.554732,93.5470667 145.466651,93.2724252 C145.378571,92.9977837 145.315487,92.7807317 145.277398,92.6212625 C145.120282,93.1882642 144.670364,94.5902435 143.927632,96.8272425 L146.648591,96.8272425 Z M160.267878,92.7275748 C159.434684,92.7275748 158.789563,93.0188231 158.332498,93.6013289 C157.875431,94.1838345 157.646901,94.9955651 157.646901,96.0365448 C157.646901,98.2026687 158.520551,99.2857143 160.267878,99.2857143 C161.001089,99.2857143 161.889023,99.1151733 162.931705,98.7740864 L162.931705,100.501661 C162.074706,100.833889 161.117737,101 160.060771,101 C158.541977,101 157.380284,100.571433 156.575657,99.7142856 C155.771029,98.8571386 155.368722,97.6268076 155.368722,96.0232558 C155.368722,95.0132839 155.566305,94.1284644 155.961477,93.3687707 C156.356649,92.609077 156.924402,92.0265801 157.664756,91.6212624 C158.405108,91.2159448 159.272807,91.0132891 160.267878,91.0132891 C161.281994,91.0132891 162.300857,91.2414152 163.324495,91.6976744 L162.610332,93.3720929 C162.219922,93.1993346 161.827135,93.048727 161.431963,92.9202658 C161.036791,92.7918044 160.648767,92.7275748 160.267878,92.7275748 Z M184.099896,98.1694351 C184.099896,99.046516 183.760673,99.7375389 183.082214,100.242525 C182.403757,100.747511 181.459881,101 180.25056,101 C179.13646,101 178.150925,100.805096 177.293926,100.415282 L177.293926,98.5016611 C177.998569,98.7940213 178.594889,98.9999994 179.082904,99.1196012 C179.570916,99.2392032 180.017264,99.2990033 180.421959,99.2990033 C180.907591,99.2990033 181.280142,99.2126255 181.539623,99.0398671 C181.799104,98.8671088 181.928842,98.61019 181.928842,98.2691029 C181.928842,98.0786258 181.871709,97.9091923 181.757442,97.7607973 C181.643176,97.6124023 181.47535,97.4695466 181.253958,97.3322259 C181.032567,97.1949052 180.581458,96.9756382 179.90062,96.6744185 C179.262631,96.3953474 178.784146,96.1273545 178.465152,95.8704319 C178.146158,95.6135092 177.891443,95.3145089 177.700998,94.9734218 C177.510554,94.6323349 177.415333,94.2336678 177.415333,93.7774087 C177.415333,92.9180466 177.728371,92.2425274 178.354457,91.7508306 C178.980542,91.2591338 179.845861,91.0132891 180.950439,91.0132891 C181.493205,91.0132891 182.010968,91.073089 182.503743,91.192691 C182.996518,91.312293 183.5119,91.480619 184.049905,91.6976744 L183.335742,93.2990033 C182.778693,93.0863777 182.318063,92.9379849 181.953837,92.8538205 C181.589612,92.7696562 181.231344,92.7275748 180.879023,92.7275748 C180.460045,92.7275748 180.138675,92.8183823 179.914903,93 C179.691131,93.1816177 179.579247,93.4186031 179.579247,93.7109634 C179.579247,93.8925812 179.624476,94.0509405 179.714938,94.1860464 C179.805399,94.3211523 179.94942,94.4518266 180.147006,94.5780731 C180.344592,94.7043196 180.812364,94.9313383 181.550336,95.2591362 C182.526363,95.6932469 183.195288,96.1284585 183.557133,96.564784 C183.918977,97.0011096 184.099896,97.5359879 184.099896,98.1694351 Z M196.497966,100.86711 L190.484715,100.86711 L190.484715,91.1528239 L196.497966,91.1528239 L196.497966,92.8405316 L192.69862,92.8405316 L192.69862,94.9734218 L196.233726,94.9734218 L196.233726,96.6611296 L192.69862,96.6611296 L192.69862,99.1661129 L196.497966,99.1661129 L196.497966,100.86711 Z M205.382354,95.4651163 L206.096517,95.4651163 C206.7964,95.4651163 207.312972,95.3565902 207.646249,95.1395349 C207.979528,94.9224795 208.146164,94.5813977 208.146164,94.1162791 C208.146164,93.6555902 207.975956,93.3277971 207.635538,93.1328904 C207.295118,92.9379835 206.767834,92.8405316 206.053666,92.8405316 L205.382354,92.8405316 L205.382354,95.4651163 Z M205.382354,97.1395348 L205.382354,100.86711 L203.16845,100.86711 L203.16845,91.1528239 L206.210783,91.1528239 C207.629593,91.1528239 208.679402,91.3931316 209.360241,91.8737541 C210.041079,92.3543767 210.381493,93.084159 210.381493,94.0631229 C210.381493,94.6345544 210.212477,95.1428548 209.874438,95.5880398 C209.536399,96.0332248 209.057915,96.3820585 208.438971,96.6345515 C210.010136,98.8183941 211.033759,100.229233 211.50987,100.86711 L209.053151,100.86711 L206.560722,97.1395348 L205.382354,97.1395348 Z M223.272335,91.1528239 L225.507664,91.1528239 L221.958274,100.86711 L219.544405,100.86711 L216.002157,91.1528239 L218.237486,91.1528239 L220.201434,96.9335548 C220.310939,97.2746417 220.424015,97.6722015 220.540662,98.1262458 C220.65731,98.5802902 220.729915,98.8959016 220.758482,99.0730897 C220.810854,98.6655572 220.989393,97.952386 221.294104,96.9335548 L223.272335,91.1528239 Z M231.31401,100.86711 L231.31401,91.1528239 L233.527915,91.1528239 L233.527915,100.86711 L231.31401,100.86711 Z M245.083272,92.7275748 C244.250078,92.7275748 243.604957,93.0188231 243.147891,93.6013289 C242.690825,94.1838345 242.462295,94.9955651 242.462295,96.0365448 C242.462295,98.2026687 243.335945,99.2857143 245.083272,99.2857143 C245.816483,99.2857143 246.704416,99.1151733 247.747099,98.7740864 L247.747099,100.501661 C246.8901,100.833889 245.933131,101 244.876164,101 C243.357371,101 242.195678,100.571433 241.391051,99.7142856 C240.586423,98.8571386 240.184116,97.6268076 240.184116,96.0232558 C240.184116,95.0132839 240.381698,94.1284644 240.77687,93.3687707 C241.172042,92.609077 241.739796,92.0265801 242.480148,91.6212624 C243.220502,91.2159448 244.0882,91.0132891 245.083272,91.0132891 C246.097388,91.0132891 247.116251,91.2414152 248.139888,91.6976744 L247.425726,93.3720929 C247.035316,93.1993346 246.642529,93.048727 246.247357,92.9202658 C245.852185,92.7918044 245.464161,92.7275748 245.083272,92.7275748 Z M260.473683,100.86711 L254.460432,100.86711 L254.460432,91.1528239 L260.473683,91.1528239 L260.473683,92.8405316 L256.674337,92.8405316 L256.674337,94.9734218 L260.209443,94.9734218 L260.209443,96.6611296 L256.674337,96.6611296 L256.674337,99.1661129 L260.473683,99.1661129 L260.473683,100.86711 Z M275.4358,100.86711 L275.4358,91.1528239 L277.649705,91.1528239 L277.649705,100.86711 L275.4358,100.86711 Z M294.032802,100.86711 L291.219,100.86711 L286.676925,93.5182724 L286.61265,93.5182724 C286.703112,94.8161748 286.748341,95.7419684 286.748341,96.295681 L286.748341,100.86711 L284.77011,100.86711 L284.77011,91.1528239 L287.562487,91.1528239 L292.09742,98.4285714 L292.147412,98.4285714 C292.075995,97.1661066 292.040288,96.2735353 292.040288,95.7508305 L292.040288,91.1528239 L294.032802,91.1528239 L294.032802,100.86711 Z M313.472718,100.86711 L311.258814,100.86711 L311.258814,92.8671096 L308.423588,92.8671096 L308.423588,91.1528239 L316.307944,91.1528239 L316.307944,92.8671096 L313.472718,92.8671096 L313.472718,100.86711 Z M331.591231,95.9966777 C331.591231,97.6046592 331.162738,98.8405272 330.305738,99.7043189 C329.448739,100.568111 328.220391,101 326.620659,101 C325.020926,101 323.792578,100.568111 322.935578,99.7043189 C322.078579,98.8405272 321.650086,97.6002296 321.650086,95.9833887 C321.650086,94.3665478 322.079769,93.1317871 322.939149,92.2790697 C323.79853,91.4263523 325.030448,91 326.634942,91 C328.239436,91 329.466592,91.4296745 330.316451,92.2890366 C331.166308,93.1483985 331.591231,94.3842665 331.591231,95.9966777 Z M323.971115,95.9966777 C323.971115,97.0819544 324.192502,97.899222 324.635286,98.448505 C325.078069,98.9977879 325.739854,99.2724252 326.620659,99.2724252 C328.38703,99.2724252 329.270203,98.1805203 329.270203,95.9966777 C329.270203,93.8084054 328.391791,92.7142857 326.634942,92.7142857 C325.754137,92.7142857 325.089972,92.9900304 324.642428,93.5415282 C324.194884,94.093026 323.971115,94.9114009 323.971115,95.9966777 Z M348.274277,100.86711 L345.753282,100.86711 L344.339239,95.7641196 C344.286867,95.5825019 344.197598,95.2070903 344.071428,94.6378737 C343.94526,94.0686571 343.872654,93.6866012 343.853609,93.4916943 C343.825043,93.7308982 343.753627,94.1151689 343.63936,94.6445182 C343.525093,95.1738675 343.437015,95.5514939 343.37512,95.7774086 L341.968219,100.86711 L339.454366,100.86711 L336.790539,91.1528239 L338.968736,91.1528239 L340.30422,96.4551495 C340.537515,97.4341135 340.706532,98.2823884 340.811276,99 C340.839843,98.747507 340.905307,98.3565918 341.00767,97.8272425 C341.110034,97.2978932 341.206445,96.8870446 341.296907,96.5946843 L342.818073,91.1528239 L344.91057,91.1528239 L346.431737,96.5946843 C346.498392,96.8383179 346.581711,97.2104072 346.681693,97.7109635 C346.781677,98.2115197 346.857854,98.6411941 346.910226,99 C346.957837,98.6544833 347.034014,98.2237014 347.138758,97.7076411 C347.243503,97.191581 347.338724,96.7740879 347.424423,96.4551495 L348.752765,91.1528239 L350.930962,91.1528239 L348.274277,100.86711 Z M366,100.86711 L363.186199,100.86711 L358.644123,93.5182724 L358.579848,93.5182724 C358.67031,94.8161748 358.715539,95.7419684 358.715539,96.295681 L358.715539,100.86711 L356.737309,100.86711 L356.737309,91.1528239 L359.529685,91.1528239 L364.064618,98.4285714 L364.11461,98.4285714 C364.043194,97.1661066 364.007486,96.2735353 364.007486,95.7508305 L364.007486,91.1528239 L366,91.1528239 L366,100.86711 Z" id="THE-BEST-HVAC-SERVIC" fill="#CB020B"></path>
                </g>
            </g>
        </g>
    </g>
</svg>