<?xml version="1.0" encoding="UTF-8"?>
<svg width="69px" height="74px" viewBox="0 0 69 74" version="1.1" xmlns="http://www.w3.org/2000/svg" xmlns:xlink="http://www.w3.org/1999/xlink">
    <!-- Generator: Sketch 53.2 (72643) - https://sketchapp.com -->
    <title>snowflake</title>
    <desc>Created with Sketch.</desc>
    <g id="boostrap" stroke="none" stroke-width="1" fill="none" fill-rule="evenodd">
        <g id="Home---1366x650---1140-container" transform="translate(-166.000000, -1228.000000)" fill="#FFFFFF">
            <g id="services" transform="translate(113.000000, 948.000000)">
                <g transform="translate(0.000000, 241.000000)" id="item1">
                    <g>
                        <path d="M96.0663894,90.7698168 L89.650846,87.3414036 L89.650846,79.6092561 L96.3180384,83.4753298 L96.0663894,90.7698168 Z M78.9336106,90.7698168 L78.6819616,83.4754739 L85.349154,79.6092561 L85.349154,87.3414036 L78.9336106,90.7698168 Z M70.3673645,75.867755 L76.5311156,72.0016812 L83.198308,75.867755 L76.5311156,79.7338288 L70.3673645,75.867755 Z M78.9336106,60.9656932 L85.349154,64.3941064 L85.349154,72.1262539 L78.6819616,68.2601802 L78.9336106,60.9656932 Z M96.0663894,60.9656932 L96.3180384,68.2600361 L89.650846,72.1262539 L89.650846,64.3941064 L96.0663894,60.9656932 Z M104.632636,75.867755 L98.4688844,79.7338288 L91.801692,75.867755 L98.4688844,72.0016812 L104.632636,75.867755 Z M120.013765,83.4148437 L112.021939,87.5928532 L102.688701,82.180782 L112.7538,75.867755 L102.688701,69.554728 L112.021939,64.1426568 L120.013765,68.3206663 L121.999857,64.488292 L116.439203,61.5813559 L120.365214,59.3047721 L118.214368,55.563271 L114.288357,57.8398548 L114.562231,51.5497262 L110.264554,51.360923 L109.870949,60.4012997 L100.537711,65.813371 L100.126757,53.9022058 L89.650846,59.5000559 L89.650846,48.6759135 L97.2492114,43.8134022 L94.9377689,40.1696871 L89.650846,43.5530237 L89.650846,39 L85.349154,39 L85.349154,43.5530237 L80.0622311,40.1698311 L77.7507886,43.8135463 L85.349154,48.6760575 L85.349154,59.5002 L74.8731001,53.9020618 L74.4621451,65.8132269 L65.1289074,60.4011557 L64.7353026,51.360779 L60.4376255,51.5495822 L60.7114999,57.8397108 L56.785489,55.563127 L54.634643,59.304628 L58.5606539,61.5812119 L53,64.488148 L54.9860912,68.3205223 L62.977918,64.1425128 L72.3111557,69.554584 L62.2462002,75.867755 L72.3112991,82.180782 L62.9780614,87.5928532 L54.9862346,83.4148437 L53.0001434,87.247218 L58.5607972,90.1541541 L54.6347863,92.4307379 L56.7856323,96.172239 L60.7116432,93.8956552 L60.4377689,100.185784 L64.7354459,100.374587 L65.1290508,91.3342103 L74.4622885,85.922139 L74.8732435,97.8333042 L85.349154,92.2354541 L85.349154,103.059597 L77.7507886,107.922108 L80.0622311,111.565823 L85.349154,108.182486 L85.349154,112.73551 L89.650846,112.73551 L89.650846,108.182486 L94.9377689,111.565679 L97.2492114,107.921964 L89.650846,103.059452 L89.650846,92.23531 L100.1269,97.8334482 L100.537855,85.9222831 L109.871093,91.3343543 L110.264697,100.374731 L114.562375,100.185928 L114.2885,93.8957992 L118.214511,96.172383 L120.365357,92.430882 L116.439346,90.1542981 L122,87.247362 L120.013765,83.4148437 L120.013765,83.4148437 Z" id="snowflake"></path>
                    </g>
                </g>
            </g>
        </g>
    </g>
</svg>